<?xml version="1.0" standalone="no"?><!DOCTYPE svg PUBLIC "-//W3C//DTD SVG 1.1//EN" "http://www.w3.org/Graphics/SVG/1.1/DTD/svg11.dtd"><svg t="1756264849527" class="icon" viewBox="0 0 1024 1024" version="1.1" xmlns="http://www.w3.org/2000/svg" p-id="7816" xmlns:xlink="http://www.w3.org/1999/xlink"><path d="M822.272 128C862.848 128 896 161.152 896 201.728v620.544c0 40.576-33.152 73.728-73.728 73.728H201.728A73.92 73.92 0 0 1 128 822.272V201.728C128 161.152 161.152 128 201.728 128zM623.424 415.36H519.424v44.032h28.8v141.12h-46.08l-21.824 43.2h161.344v-43.008h-46.72V458.816h28.48v-43.52z m-327.424-17.664h-44.992v208h-29.952l28.544 37.824h27.2s19.2 0 18.752-27.776l0.448-218.048zM479.488 597.76h-71.68l-23.168 45.76h50.112l15.744-0.128c2.752-0.192 6.592-2.304 7.808-4.608l5.12-9.472 16.064-31.552z m252.032-200.064h-44.992V416h-29.44v43.52h28.992v38.848h-43.776v45.888h44.992v98.56h44.544v-99.2h41.984c6.72 0 13.44 0 20.032 0.192 9.984 0.128 15.36 6.4 15.68 16.256l0.192 15.616-0.192 29.824-44.992-0.128 17.344 37.312h41.984c3.84 0 26.88-1.28 30.72-24.704l0.576-6.912V532.48c0-26.368-16.128-34.048-54.08-33.92l-0.32-51.136c-0.128-27.136-23.744-30.784-31.04-31.232l-37.888-0.128-0.32-18.368z m-512.64 62.912h-47.296c3.84 59.456-13.312 112-13.312 113.792l26.88 47.36c28.544-40.128 33.024-120.32 33.664-149.824l0.128-11.328z m153.6-0.256h-44.352c-0.32 83.648 11.328 140.032 32.832 158.912l5.376-14.784c8.32-21.952 17.024-41.28 17.024-41.28l-3.52-16.896c-3.584-18.56-8.512-49.536-7.808-76.992l0.448-8.96z m114.56-62.72h-44.992l-26.432 53.632c-4.352 8.96-8.64 17.92-12.736 27.008-7.68 17.216-1.344 25.664 17.216 26.432h21.632l-7.04 15.808c-6.016 13.248-12.48 26.24-17.856 39.68-4.48 10.688 0 19.456 11.392 20.672 15.808 1.728 31.808 1.28 47.616 1.28 1.664 0 4.288-2.048 5.184-3.712l17.088-33.216-8.64-0.768-8.96-0.256c-8.576-0.512-10.496-2.048-8.064-8.448l5.248-11.2 32.512-65.6-54.336 3.072c3.904-10.432 8.96-21.056 14.4-31.744l16.768-32.64z m274.88 61.76v39.04h-29.76l-0.32-39.04h30.08z m61.44-41.92a23.936 23.936 0 0 0-10.752 15.552l-0.448 4.864V460.8h23.936a24.192 24.192 0 0 0 20.736-36.736l-3.392-4.352-0.64-0.576c-10.368-9.92-21.44-6.72-29.44-1.664z" fill="#D3C7B0" p-id="7817"></path></svg>